<svg width="504" height="112" viewBox="0 0 504 112" fill="none" xmlns="http://www.w3.org/2000/svg">
<g clip-path="url(#clip0_18_19)">
<path d="M361.259 27.8919C366.882 29.3292 369.275 30.6545 373.564 34.5745C381.076 41.5857 383.861 51.8001 381.132 62.4028C378.015 74.6593 366.994 82.7756 353.856 82.5553C351.998 82.5196 350.142 82.4088 348.294 82.2231C345.564 81.7825 340.831 79.7964 337.937 77.8625C323.743 68.4769 321.847 47.0513 334.152 35.0151C337.916 31.2617 342.695 28.6899 347.902 27.6156C353.024 26.5703 356.193 26.6225 361.259 27.8919ZM244.253 27.8919L248.819 28.0561L253.381 28.2241L253.549 43.6839C253.773 66.2705 252.825 71.2919 247.258 76.8135C243.196 80.7895 239.575 82.1708 232.228 82.3911C229.167 82.5031 225.881 82.3351 224.881 82.1148C216.641 80.0167 211.019 73.6103 209.63 64.8295C209.35 62.8993 209.182 53.8983 209.238 44.7889L209.406 28.2241H218.314L218.59 46.7191C218.87 65.1057 218.87 65.2177 220.263 67.9804C224.492 76.3729 237.962 76.4252 242.416 68.0924L243.917 65.2177L244.253 27.8919ZM175.672 27.9479L176.788 30.8748C177.4 32.4204 179.905 38.9388 182.41 45.3415C184.912 51.7441 187.641 58.8113 188.533 61.0775C189.366 63.3399 191.482 68.7532 193.207 73.0615C194.932 77.366 196.324 81.0657 196.324 81.23C196.324 81.398 194.211 81.5063 191.65 81.5063C187.084 81.5063 186.972 81.4503 186.416 80.0129C186.08 79.1319 182.743 70.5191 179.069 60.8012C170.497 38.2743 170.553 38.4385 169.829 38.4385C169.493 38.4385 168.993 39.2673 168.66 40.2604C168.324 41.1975 165.987 47.3836 163.482 53.8983C160.981 60.4129 157.584 69.2497 155.967 73.4983L153.074 81.23L148.564 81.398C144.722 81.51 143.998 81.398 143.998 80.6775C143.998 79.6844 163.426 29.6577 164.207 28.6647C164.543 28.1681 166.488 27.9479 170.217 27.9479H175.672ZM284.11 27.9479C298.524 27.9479 301.754 28.4444 305.875 31.4273C307.32 32.4727 309.049 34.4625 310.049 36.1761C311.498 38.7708 311.83 39.9281 311.998 43.9041C312.162 47.7681 311.998 49.2055 311.05 51.8001C309.549 55.6081 306.152 58.9233 302.146 60.3607C300.585 60.9095 299.308 61.462 299.308 61.63C299.308 61.7943 302.59 66.0465 306.544 71.1276C310.55 76.2049 313.779 80.5692 313.779 80.8977C313.779 81.7265 305.875 81.6705 304.147 80.8977C303.37 80.5692 299.529 76.0967 295.635 70.9596L288.452 61.686L284.442 61.63H280.38V81.5063H271.473L271.585 67.8684L271.753 54.1745L284.554 53.8983C293.794 53.678 297.748 53.4017 298.804 52.8529C302.866 50.8071 304.539 44.4007 301.978 40.7009C299.417 36.8929 298.08 36.5607 286.111 36.2284L275.37 35.9521L273.646 34.2423C272.542 33.1854 271.834 31.782 271.641 30.2663L271.305 27.9479H284.11ZM408.579 28.0599C421.825 28.2241 422.77 28.2801 425.387 29.4935C431.286 32.2001 434.459 37.0012 434.851 43.7399C435.295 52.2407 431.678 58.0945 424.442 60.4689C423.27 60.8572 422.326 61.4097 422.326 61.686C422.326 61.9585 425.499 66.2108 429.34 71.1276C433.178 76.0407 436.464 80.4012 436.632 80.8455C437.08 81.9468 427.392 81.5623 425.943 80.4012C425.387 79.9607 421.825 75.5441 417.984 70.6273L411.081 61.63H407.295C404.346 61.63 403.454 61.8503 403.177 62.5111C403.009 63.0076 402.841 67.4801 402.841 72.4529V81.5063H393.937V68.5889C393.937 61.462 394.102 55.2796 394.273 54.7831C394.55 54.0103 396.218 53.8983 406.683 53.8983C420.209 53.8983 422.102 53.4577 424.607 49.9783C426.387 47.4956 426.387 42.6908 424.663 40.2604C422.382 37.1132 420.377 36.5644 408.964 36.2284C400.56 36.0081 398.335 35.7879 397.167 35.0151C395.382 33.8577 393.769 30.4865 394.217 28.9969C394.606 27.8919 394.882 27.8919 408.576 28.0561L408.579 28.0599ZM482.555 28.2241L485.729 36.2284C487.399 40.3625 489.05 44.504 490.683 48.6529C491.627 51.0796 494.801 59.2556 497.694 66.7633C500.643 74.2748 503.04 80.6775 503.04 80.9537C503.04 81.286 501.035 81.5063 498.418 81.5063H493.856L489.735 70.6273C480.999 47.6039 477.489 38.7148 476.989 38.5505C476.489 38.3825 475.264 41.2535 469.418 56.3847C468.417 59.1473 465.856 65.6583 463.851 70.9073C461.847 76.0967 460.178 80.6775 460.178 80.9537C460.178 81.286 458.229 81.5063 455.448 81.5063C452.719 81.5063 450.714 81.2823 450.714 80.9537C450.714 80.5692 465.132 43.2433 470.142 30.7068L471.087 28.2241H482.555ZM353.8 35.6759C340.61 35.6759 331.983 47.9921 336.044 61.1335C337.101 64.6092 337.713 65.606 340.719 68.5852C343.556 71.4039 344.84 72.2289 347.79 73.1697C350.196 73.973 352.738 74.2938 355.269 74.1138C357.8 73.9338 360.271 73.2565 362.54 72.1207C373.004 67.0433 376.346 53.566 369.723 43.5719C366.27 38.3825 360.815 35.6759 353.8 35.6759Z" fill="white"/>
<path d="M56.0001 8.5568C58.3118 8.54949 60.5794 9.18938 62.5462 10.4041C64.513 11.6187 66.1006 13.3597 67.1292 15.4299L102.129 85.4299C103.079 87.3271 103.528 89.4357 103.433 91.5554C103.338 93.675 102.703 95.7352 101.588 97.5402C100.473 99.3452 98.9148 100.835 97.0616 101.868C95.2084 102.901 93.1219 103.444 91.0001 103.443H21.0001C18.8787 103.443 16.7926 102.9 14.94 101.867C13.0873 100.833 11.5296 99.3435 10.4149 97.5386C9.30012 95.7337 8.66534 93.6737 8.57081 91.5544C8.47629 89.4351 8.92517 87.3268 9.8748 85.4299L44.8711 15.4299C45.8997 13.3597 47.4873 11.6187 49.4541 10.4041C51.4209 9.18938 53.6885 8.54949 56.0001 8.5568ZM56.0001 1.03754e-07C52.1008 -0.000387435 48.2784 1.08488 44.9611 3.13422C41.6438 5.18357 38.9625 8.11606 37.2177 11.6032L2.21774 81.6032C0.615686 84.805 -0.141159 88.3633 0.0190978 91.94C0.179354 95.5167 1.25139 98.993 3.13337 102.039C5.01535 105.084 7.64477 107.598 10.7719 109.342C13.899 111.085 17.4199 112 21.0001 112H91.0001C94.5801 112 98.1005 111.084 101.227 109.341C104.354 107.597 106.983 105.083 108.864 102.037C110.746 98.9915 111.817 95.5154 111.977 91.9391C112.138 88.3627 111.381 84.8048 109.779 81.6032L74.7825 11.6032C73.0377 8.11606 70.3565 5.18357 67.0392 3.13422C63.7218 1.08488 59.8994 -0.000387435 56.0001 1.03754e-07Z" fill="#78D64B"/>
</g>
<defs>
<clipPath id="clip0_18_19">
<rect width="504" height="112" fill="white"/>
</clipPath>
</defs>
</svg>
