<svg width="81" height="21" viewBox="0 0 81 21" fill="none" xmlns="http://www.w3.org/2000/svg">
<g clip-path="url(#clip0_18_57)">
<mask id="mask0_18_57" style="mask-type:luminance" maskUnits="userSpaceOnUse" x="0" y="0" width="81" height="21">
<path d="M81 0H0V21H81V0Z" fill="white"/>
</mask>
<g mask="url(#mask0_18_57)">
<path d="M12.6465 0.603966C12.7858 -0.201324 13.942 -0.201321 14.0814 0.603969L14.865 5.13203C14.9165 5.42946 15.1461 5.6643 15.4424 5.72239L19.9191 6.60031C20.7031 6.75406 20.7031 7.8756 19.9191 8.02935L15.4424 8.90728C15.1461 8.96537 14.9165 9.2002 14.865 9.49764L14.0814 14.0257C13.942 14.831 12.7858 14.831 12.6465 14.0257L11.8629 9.49764C11.8114 9.2002 11.5817 8.96537 11.2855 8.90728L6.80871 8.02935C6.0247 7.8756 6.0247 6.75406 6.80872 6.60031L11.2855 5.72239C11.5817 5.6643 11.8114 5.42946 11.8629 5.13203L12.6465 0.603966Z" fill="white"/>
<path d="M19.4514 20.1339C17.4452 22.4078 11.617 20.0494 6.43375 14.8661C1.25049 9.68287 -1.32502 3.63758 0.681181 1.36361C2.68739 -0.910374 8.5156 1.44807 13.6989 6.63133C18.8821 11.8146 21.4576 17.8599 19.4514 20.1339Z" fill="#02D688"/>
<path d="M12.6465 0.603966C12.7858 -0.201324 13.942 -0.201321 14.0814 0.603969L14.865 5.13203C14.9165 5.42946 15.1461 5.6643 15.4424 5.72239L19.9191 6.60031C20.7031 6.75406 20.7031 7.8756 19.9191 8.02935L15.4424 8.90728C15.1461 8.96537 14.9165 9.2002 14.865 9.49764L14.0814 14.0257C13.942 14.831 12.7858 14.831 12.6465 14.0257L11.8629 9.49764C11.8114 9.2002 11.5817 8.96537 11.2855 8.90728L6.80871 8.02935C6.0247 7.8756 6.0247 6.75406 6.80872 6.60031L11.2855 5.72239C11.5817 5.6643 11.8114 5.42946 11.8629 5.13203L12.6465 0.603966Z" fill="white"/>
<path d="M73.2216 8.74688V16.0002H70.8555V3.78407H73.1267V5.77237H73.277C73.5567 5.12551 73.9945 4.6059 74.5907 4.21354C75.1921 3.82118 75.9492 3.625 76.8619 3.625C77.6902 3.625 78.4156 3.79998 79.0381 4.14992C79.6606 4.49456 80.1434 5.00886 80.4863 5.69284C80.8292 6.37682 81.0007 7.22251 81.0007 8.22992V16.0002H78.6345V8.51623C78.6345 7.63077 78.405 6.93884 77.946 6.44044C77.487 5.93674 76.8566 5.68489 76.0547 5.68489C75.506 5.68489 75.018 5.80419 74.5907 6.04278C74.1686 6.28138 73.8336 6.63132 73.5857 7.09261C73.343 7.54859 73.2216 8.10001 73.2216 8.74688Z" fill="white"/>
<path d="M62.748 16.0001V3.78399H65.035V5.72458H65.1617C65.3832 5.06711 65.7737 4.55015 66.333 4.1737C66.8975 3.79194 67.5358 3.60107 68.248 3.60107C68.3958 3.60107 68.5699 3.60637 68.7703 3.61697C68.9761 3.62758 69.1369 3.64083 69.253 3.65674V5.93136C69.158 5.90485 68.9892 5.87569 68.7465 5.84387C68.5038 5.80676 68.2612 5.7882 68.0185 5.7882C67.4593 5.7882 66.9607 5.9075 66.5228 6.1461C66.0902 6.37939 65.7473 6.70547 65.494 7.12434C65.2408 7.53791 65.1142 8.0098 65.1142 8.54002V16.0001H62.748Z" fill="white"/>
<path d="M54.0426 16.2706C53.2723 16.2706 52.576 16.1275 51.9534 15.8411C51.3309 15.5495 50.8376 15.128 50.4736 14.5766C50.1148 14.0252 49.9355 13.3491 49.9355 12.5485C49.9355 11.8592 50.0674 11.2919 50.3311 10.8465C50.5949 10.4011 50.951 10.0485 51.3995 9.78875C51.8479 9.52894 52.3491 9.33276 52.903 9.20021C53.457 9.06766 54.0215 8.96692 54.5965 8.89799C55.3246 8.81315 55.9155 8.74423 56.3692 8.6912C56.8229 8.63288 57.1526 8.54009 57.3584 8.41284C57.5641 8.28559 57.667 8.07881 57.667 7.79249V7.73682C57.667 7.04224 57.4718 6.50407 57.0814 6.12231C56.6963 5.74056 56.1212 5.54968 55.3562 5.54968C54.5596 5.54968 53.9318 5.7273 53.4728 6.08255C53.0191 6.43249 52.7052 6.8222 52.5311 7.25167L50.3074 6.74267C50.5712 6.00037 50.9563 5.40122 51.4628 4.94524C51.9745 4.48395 52.5628 4.14992 53.2275 3.94313C53.8922 3.73105 54.5913 3.625 55.3246 3.625C55.81 3.625 56.3243 3.68333 56.8677 3.79998C57.4164 3.91132 57.9281 4.1181 58.403 4.42032C58.883 4.72255 59.2761 5.15467 59.5821 5.7167C59.8881 6.27343 60.0411 6.99717 60.0411 7.88793V16.0002H57.7303V14.33H57.6353C57.4824 14.6375 57.2529 14.9398 56.9469 15.2367C56.6409 15.5336 56.2478 15.7802 55.7678 15.9763C55.2877 16.1725 54.7126 16.2706 54.0426 16.2706ZM54.557 14.3618C55.2112 14.3618 55.7704 14.2319 56.2346 13.9721C56.7042 13.7123 57.0603 13.373 57.303 12.9541C57.5509 12.5299 57.6749 12.0766 57.6749 11.5941V10.0194C57.5905 10.1042 57.427 10.1837 57.1843 10.258C56.9469 10.3269 56.6752 10.3879 56.3692 10.4409C56.0632 10.4886 55.7651 10.5337 55.4749 10.5761C55.1848 10.6132 54.9421 10.645 54.7469 10.6715C54.2879 10.7299 53.8685 10.828 53.4886 10.9658C53.1141 11.1037 52.8134 11.3025 52.5865 11.5623C52.3649 11.8168 52.2541 12.1561 52.2541 12.5803C52.2541 13.1689 52.4704 13.6142 52.903 13.9165C53.3357 14.2134 53.887 14.3618 54.557 14.3618Z" fill="white"/>
<path d="M43.111 16.2467C41.9134 16.2467 40.882 15.9896 40.0168 15.4753C39.1569 14.9557 38.4921 14.2266 38.0226 13.2882C37.5583 12.3444 37.3262 11.2389 37.3262 9.97167C37.3262 8.72036 37.5583 7.61752 38.0226 6.66313C38.4921 5.70875 39.1463 4.9638 39.9851 4.42828C40.8292 3.89276 41.8158 3.625 42.9448 3.625C43.6306 3.625 44.2954 3.739 44.939 3.96699C45.5827 4.19498 46.1603 4.55288 46.6721 5.04068C47.1838 5.52847 47.5874 6.16208 47.8829 6.9415C48.1783 7.71561 48.326 8.65674 48.326 9.76489V10.6079H38.6636V8.82641H46.0073C46.0073 8.20076 45.8807 7.64668 45.6275 7.16419C45.3743 6.67639 45.0182 6.29198 44.5592 6.01097C44.1055 5.72996 43.5726 5.58945 42.9606 5.58945C42.2959 5.58945 41.7156 5.75382 41.2196 6.08255C40.729 6.40598 40.3492 6.83015 40.0801 7.35506C39.8163 7.87467 39.6844 8.43935 39.6844 9.0491V10.4409C39.6844 11.2574 39.8269 11.952 40.1118 12.5246C40.4019 13.0973 40.8055 13.5347 41.3225 13.8369C41.8395 14.1338 42.4436 14.2823 43.1347 14.2823C43.5832 14.2823 43.992 14.2187 44.3613 14.0914C44.7306 13.9589 45.0498 13.7627 45.3189 13.5029C45.5879 13.2431 45.7937 12.9223 45.9361 12.5405L48.1757 12.9462C47.9963 13.6089 47.6745 14.1895 47.2102 14.6879C46.7512 15.181 46.1735 15.5654 45.4771 15.8411C44.786 16.1115 43.9973 16.2467 43.111 16.2467Z" fill="white"/>
<path d="M27.3662 8.74688V16.0002H25V3.78407H27.2712V5.77237H27.4215C27.7012 5.12551 28.139 4.6059 28.7352 4.21354C29.3366 3.82118 30.0937 3.625 31.0064 3.625C31.8347 3.625 32.5601 3.79998 33.1826 4.14992C33.8051 4.49456 34.2879 5.00886 34.6308 5.69284C34.9737 6.37682 35.1452 7.22251 35.1452 8.22992V16.0002H32.779V8.51623C32.779 7.63077 32.5495 6.93884 32.0905 6.44044C31.6316 5.93674 31.0011 5.68489 30.1992 5.68489C29.6505 5.68489 29.1625 5.80419 28.7352 6.04278C28.3131 6.28138 27.9781 6.63132 27.7302 7.09261C27.4875 7.54859 27.3662 8.10001 27.3662 8.74688Z" fill="white"/>
</g>
</g>
<defs>
<clipPath id="clip0_18_57">
<rect width="81" height="21" fill="white"/>
</clipPath>
</defs>
</svg>