<svg xmlns="http://www.w3.org/2000/svg" viewBox="0 0 287 100.6" style="enable-background:new 0 0 287 100.6" xml:space="preserve"><path d="M79 37.3 47.2 55.8c-3.1 1.8-7 1.8-10.1 0l-32-18.5c-6.7-3.9-6.7-13.5 0-17.4L36.8 1.4c3.1-1.8 7-1.8 10.1 0L79 19.9c6.7 3.8 6.7 13.5 0 17.4z"/><path d="M79 80.8 47.2 99.2c-3.1 1.8-7 1.8-10.1 0l-32-18.5c-6.7-3.9-6.7-13.5 0-17.4l31.8-18.5c3.1-1.8 7-1.8 10.1 0l32 18.5c6.7 3.9 6.7 13.6 0 17.5z"/><path d="M0 28.7h84v45H0z"/><path d="M60.9 26.5c-1.7 0-3.4.9-4.3 2.3l-9.9 14.5c-.3.5-.1 1.2.3 1.4.4.3.9.3 1.3-.1l9.7-8.3c.1-.1.4-.1.5 0 .1.1.1.1.1.3v26.2c0 .3-.1.4-.4.4-.1 0-.3 0-.3-.1L28.8 28.2c-.9-1.2-2.3-1.8-3.8-1.8h-1c-2.7 0-5.1 2.2-5.1 4.9v36.9c0 2.7 2.2 4.9 5.1 4.9 1.7 0 3.4-.9 4.3-2.3l9.9-14.5c.3-.5.1-1.2-.3-1.4-.4-.3-.9-.3-1.3.1l-9.7 8.3c-.1.1-.4.1-.5 0-.1-.1-.1-.1-.1-.3V36.8c0-.3.1-.4.4-.4.1 0 .3 0 .3.1l29.2 34.9c.9 1.2 2.3 1.8 3.8 1.8h1c2.7 0 5.1-2.2 5.1-4.9V31.5c-.3-2.8-2.5-5-5.2-5z" style="fill:#fff"/><path d="M108 36.6v3.6h.5c.9-1.5 3.1-4.1 8.5-4.1 5.9 0 9.9 3.3 9.9 9.5V63h-6V46.2c0-3.8-2.2-5.6-5.6-5.6-3.8 0-7.1 2.2-7.1 7.6V63h-6V36.6h5.8zM143.5 36c8 0 13 5.1 13 13.1v2h-20.4c.1 4.6 2.9 8.1 7.5 8.1 4.4 0 6.3-2.8 6.8-4.9h5.7v.8c-.9 3.5-4.5 8.5-12.5 8.5s-13.7-5.1-13.7-13.8c0-8.7 5.7-13.8 13.6-13.8zm7 11.3c-.2-3.9-2.5-7-7.1-7-4.5 0-7.1 3.1-7.4 7h14.5zM159 44.5c.8-5 5.5-8.5 12.3-8.5 6.8 0 11.7 3.5 11.7 10.2V63h-5.8v-3.5h-.5c-1.1 1.5-3.4 4-8.6 4-5.8 0-9.8-2.9-9.8-7.7 0-5 4.1-7.3 9.4-7.8l9.4-1v-1.3c0-3.7-2.1-5.5-5.8-5.5-3.8 0-6 1.7-6.4 5H159v-.7zm10.3 14.7c4.3 0 7.7-2.6 7.7-7.6V51l-8.2.9c-2.8.3-4.4 1.4-4.4 3.6-.1 2.2 1.8 3.7 4.9 3.7zM193.2 36.6V40h.5c1-2.1 2.7-3.5 6.3-3.5h2.8v4.7H200c-4.5 0-6.5 2.5-6.5 7.5V63h-6V36.6h5.7zM219.7 36.5c7.7 0 12.4 5.6 12.4 13.5s-4.7 13.5-12.4 13.5-12.4-5.6-12.4-13.5 4.7-13.5 12.4-13.5zm0 24.3c5.5 0 9.2-3.9 9.2-10.8s-3.7-10.8-9.2-10.8c-5.5 0-9.2 3.9-9.2 10.8s3.7 10.8 9.2 10.8zM239.6 37.1v4h.5c1-1.8 3.4-4.7 8.9-4.7 5.6 0 9.7 3.2 9.7 9.2v17.2h-3.3V46.1c0-4.8-2.9-6.9-7-6.9-4.7 0-8.8 3-8.8 9.3v14.4h-3.3V37.1h3.3zM275.2 36.5c7.8 0 11.8 5.6 11.8 12.4v1.7h-20.8c.1 6.2 3.6 10.2 9.1 10.2 5.3 0 7.8-3.4 8.2-6.4h3.2v.8c-.6 3.1-3.6 8.3-11.4 8.3s-12.4-5.6-12.4-13.5c-.1-7.9 4.5-13.5 12.3-13.5zm8.5 11.4c-.2-5.1-3.1-8.8-8.5-8.8s-8.5 3.7-9 8.8h17.5z"/></svg>