<svg width="128" height="36" viewBox="0 0 128 36" fill="none" xmlns="http://www.w3.org/2000/svg">
<g clip-path="url(#clip0_18_27)">
<path d="M0 2.219C0 1.442 0 1.054 0.151 0.757C0.284 0.496 0.496 0.284 0.757 0.151C1.054 0 1.442 0 2.219 0H11.537C18.528 0 22.024 0 24.694 1.361C27.043 2.557 28.953 4.467 30.149 6.816C31.51 9.486 31.51 12.982 31.51 19.973V33.042C31.51 33.819 31.51 34.207 31.359 34.504C31.226 34.765 31.014 34.977 30.753 35.11C30.456 35.261 30.067 35.261 29.291 35.261H7.767C5.048 35.261 3.689 35.261 2.651 34.732C1.737 34.266 0.995 33.524 0.529 32.61C0 31.572 0 30.213 0 27.494V2.219Z" fill="url(#paint0_linear_18_27)"/>
<path d="M8.61895 7.62398L8.58795 7.63898C6.07195 8.86998 4.37895 10.342 4.37895 10.342L3.74595 10.864C3.72795 10.879 3.71095 10.896 3.69595 10.914L2.57995 12.103C2.36995 12.321 2.25195 12.613 2.25195 12.917C2.25195 13.221 2.36995 13.513 2.57995 13.731L18.798 29.992L21.704 32.915C21.759 32.966 21.83 32.995 21.905 32.997H27.384C27.494 32.995 27.601 32.961 27.691 32.899C27.782 32.837 27.852 32.75 27.894 32.648C27.935 32.547 27.947 32.435 27.926 32.327C27.905 32.219 27.853 32.12 27.776 32.041L22.262 26.5C22.262 26.5 22.387 26.255 22.442 26.15C22.89 25.307 23.438 24.189 23.926 22.897C23.93 22.882 23.945 22.809 23.879 22.769C23.805 22.724 23.738 22.769 23.738 22.769C22.671 23.481 21.485 24.058 20.21 24.462L7.21595 11.161C7.51495 9.97698 8.05295 8.82498 8.76995 7.76398C8.77595 7.75098 8.80895 7.67798 8.74495 7.63198C8.70095 7.60098 8.64995 7.61198 8.61895 7.62398ZM22.105 9.04798C17.902 4.82598 12.87 5.71898 9.24395 7.33298C9.21995 7.34098 9.18195 7.34698 9.15395 7.32198C9.11695 7.28998 9.13495 7.25398 9.14295 7.24198C11.325 4.34798 14.853 2.25098 18.429 2.25098C24.054 2.25098 29.26 7.47898 29.26 13.128C29.26 16.726 27.331 20.119 24.301 22.372C24.301 22.372 24.229 22.423 24.177 22.372C24.142 22.338 24.143 22.304 24.148 22.285L24.153 22.271C25.509 18.354 26.146 13.102 22.105 9.04798ZM8.25395 29.997C8.25395 31.654 6.90995 32.997 5.25295 32.997C3.59595 32.997 2.25195 31.654 2.25195 29.997C2.25195 28.341 3.59595 26.998 5.25295 26.998C6.90995 26.998 8.25395 28.341 8.25395 29.997Z" fill="white"/>
<path d="M44.0745 16.6361V29.9321H41.3145V14.4931H43.8665L44.0745 16.6361ZM51.3145 19.9551V20.1711C51.3145 20.9821 51.2175 21.7351 51.0225 22.4281C50.8355 23.1161 50.5575 23.7171 50.1895 24.2321C49.8215 24.7411 49.3635 25.1391 48.8145 25.4281C48.2725 25.7091 47.6475 25.8501 46.9395 25.8501C46.2445 25.8501 45.6405 25.7201 45.1265 25.4591C44.6125 25.1911 44.1785 24.8131 43.8245 24.3251C43.4705 23.8371 43.1855 23.2701 42.9705 22.6241C42.7615 21.9721 42.6055 21.2611 42.5015 20.4911V19.8001C42.6055 18.9831 42.7615 18.2411 42.9705 17.5741C43.1855 16.9011 43.4705 16.3201 43.8245 15.8321C44.1785 15.3381 44.6095 14.9561 45.1165 14.6881C45.6305 14.4201 46.2305 14.2861 46.9185 14.2861C47.6335 14.2861 48.2625 14.4201 48.8035 14.6881C49.3525 14.9561 49.8145 15.3411 50.1895 15.8431C50.5645 16.3441 50.8455 16.9421 51.0335 17.6361C51.2205 18.3301 51.3145 19.1031 51.3145 19.9551ZM48.5535 20.1711V19.9551C48.5535 19.4601 48.5085 19.0031 48.4185 18.5841C48.3285 18.1581 48.1895 17.7871 48.0015 17.4711C47.8145 17.1481 47.5715 16.8971 47.2725 16.7191C46.9745 16.5401 46.6125 16.4511 46.1895 16.4511C45.7655 16.4511 45.4015 16.5201 45.0955 16.6571C44.7895 16.7941 44.5395 16.9901 44.3455 17.2441C44.1505 17.4991 43.9985 17.8011 43.8875 18.1511C43.7825 18.4951 43.7135 18.8761 43.6785 19.2951V21.0061C43.7415 21.5151 43.8625 21.9721 44.0435 22.3771C44.2235 22.7821 44.4875 23.1051 44.8355 23.3461C45.1895 23.5861 45.6475 23.7071 46.2105 23.7071C46.6335 23.7071 46.9945 23.6141 47.2935 23.4281C47.5925 23.2431 47.8355 22.9891 48.0225 22.6661C48.2105 22.3361 48.3455 21.9581 48.4285 21.5321C48.5125 21.1061 48.5535 20.6521 48.5535 20.1711Z" fill="white"/>
<path d="M56.0752 16.7701V25.6441H53.3242V14.4931H55.9292L56.0752 16.7701ZM59.5022 14.4201L59.4602 16.9561C59.3072 16.9281 59.1342 16.9081 58.9392 16.8941C58.7522 16.8801 58.5752 16.8731 58.4082 16.8731C57.9842 16.8731 57.6132 16.9321 57.2932 17.0491C56.9742 17.1591 56.7072 17.3201 56.4912 17.5331C56.2832 17.7461 56.1232 18.0071 56.0122 18.3161C55.9012 18.6191 55.8382 18.9621 55.8252 19.3471L55.2312 19.2751C55.2312 18.5671 55.3042 17.9111 55.4502 17.3061C55.5952 16.7021 55.8072 16.1721 56.0852 15.7191C56.3632 15.2651 56.7102 14.9151 57.1272 14.6681C57.5502 14.4141 58.0362 14.2861 58.5852 14.2861C58.7382 14.2861 58.9012 14.3001 59.0752 14.3281C59.2552 14.3481 59.3982 14.3791 59.5022 14.4201Z" fill="white"/>
<path d="M60.2324 20.1821V19.9651C60.2324 19.1481 60.3504 18.3951 60.5864 17.7081C60.8224 17.0141 61.1664 16.4131 61.6184 15.9051C62.0694 15.3961 62.6214 15.0011 63.2744 14.7191C63.9274 14.4311 64.6704 14.2861 65.5034 14.2861C66.3504 14.2861 67.1004 14.4311 67.7534 14.7191C68.4134 15.0011 68.9694 15.3961 69.4204 15.9051C69.8714 16.4131 70.2154 17.0141 70.4514 17.7081C70.6884 18.3951 70.8054 19.1481 70.8054 19.9651V20.1821C70.8054 20.9921 70.6884 21.7451 70.4514 22.4391C70.2154 23.1261 69.8714 23.7271 69.4204 24.2421C68.9694 24.7511 68.4164 25.1461 67.7644 25.4281C67.1114 25.7091 66.3644 25.8501 65.5244 25.8501C64.6914 25.8501 63.9444 25.7091 63.2844 25.4281C62.6254 25.1461 62.0694 24.7511 61.6184 24.2421C61.1664 23.7271 60.8224 23.1261 60.5864 22.4391C60.3504 21.7451 60.2324 20.9921 60.2324 20.1821ZM62.9824 19.9651V20.1821C62.9824 20.6701 63.0314 21.1271 63.1284 21.5531C63.2254 21.9791 63.3754 22.3531 63.5764 22.6761C63.7774 22.9991 64.0384 23.2531 64.3574 23.4391C64.6844 23.6171 65.0734 23.7071 65.5244 23.7071C65.9684 23.7071 66.3504 23.6171 66.6704 23.4391C66.9894 23.2531 67.2504 22.9991 67.4514 22.6761C67.6594 22.3531 67.8124 21.9791 67.9094 21.5531C68.0074 21.1271 68.0554 20.6701 68.0554 20.1821V19.9651C68.0554 19.4841 68.0074 19.0341 67.9094 18.6151C67.8124 18.1891 67.6594 17.8151 67.4514 17.4921C67.2504 17.1621 66.9864 16.9041 66.6594 16.7191C66.3404 16.5261 65.9554 16.4301 65.5034 16.4301C65.0594 16.4301 64.6774 16.5261 64.3574 16.7191C64.0384 16.9041 63.7774 17.1621 63.5764 17.4921C63.3754 17.8151 63.2254 18.1891 63.1284 18.6151C63.0314 19.0341 62.9824 19.4841 62.9824 19.9651Z" fill="white"/>
<path d="M74.7324 14.4922L76.7424 18.0382L78.7844 14.4922H81.7744L78.4614 19.9552L81.9094 25.6442H78.9204L76.7634 21.9242L76.2214 22.8542L75.6804 23.7842L74.5964 25.6442H71.6074L75.0444 19.9552L71.7534 14.4922H74.7324Z" fill="white"/>
<path d="M86.2854 14.4922V25.6442H83.5254V14.4922H86.2854Z" fill="white"/>
<path d="M91.6504 16.7811V25.6441H88.9004V14.4931H91.4944L91.6504 16.7811ZM91.2444 19.6661H90.4004C90.4004 18.8901 90.4944 18.1751 90.6824 17.5231C90.8764 16.8701 91.1614 16.3031 91.5364 15.8221C91.9114 15.3341 92.3734 14.9561 92.9214 14.6881C93.4774 14.4201 94.1194 14.2861 94.8484 14.2861C95.3554 14.2861 95.8214 14.3621 96.2444 14.5131C96.6684 14.6581 97.0334 14.8881 97.3384 15.2041C97.6514 15.5131 97.8904 15.9181 98.0574 16.4201C98.2244 16.9151 98.3074 17.5091 98.3074 18.2031V25.6441H95.5574V18.4811C95.5574 17.9591 95.4804 17.5501 95.3284 17.2551C95.1824 16.9591 94.9704 16.7531 94.6924 16.6361C94.4144 16.5131 94.0814 16.4511 93.6924 16.4511C93.2624 16.4511 92.8904 16.5371 92.5784 16.7081C92.2724 16.8731 92.0184 17.1041 91.8174 17.3991C91.6234 17.6941 91.4774 18.0351 91.3804 18.4191C91.2894 18.8041 91.2444 19.2201 91.2444 19.6661ZM98.0994 19.1611L96.9634 19.3671C96.9704 18.6671 97.0674 18.0111 97.2554 17.3991C97.4424 16.7811 97.7174 16.2411 98.0784 15.7811C98.4464 15.3141 98.9014 14.9501 99.4424 14.6881C99.9914 14.4201 100.623 14.2861 101.338 14.2861C101.894 14.2861 102.394 14.3651 102.838 14.5241C103.29 14.6751 103.675 14.9181 103.995 15.2551C104.314 15.5851 104.557 16.0151 104.724 16.5441C104.898 17.0731 104.984 17.7181 104.984 18.4811V25.6441H102.213V18.4711C102.213 17.9281 102.137 17.5121 101.984 17.2241C101.838 16.9351 101.627 16.7361 101.349 16.6261C101.071 16.5091 100.745 16.4511 100.37 16.4511C99.9874 16.4511 99.6544 16.5231 99.3694 16.6671C99.0924 16.8051 98.8554 16.9971 98.6614 17.2441C98.4744 17.4921 98.3314 17.7801 98.2344 18.1101C98.1444 18.4331 98.0994 18.7841 98.0994 19.1611Z" fill="white"/>
<path d="M110.37 14.4922V25.6442H107.609V14.4922H110.37Z" fill="white"/>
<path d="M119.055 14.4931V16.4511H113.006L114.499 14.4931H115.766H119.055ZM113.006 12.5181H115.766V14.4931V22.4281C115.766 22.7581 115.811 23.0131 115.901 23.1911C115.992 23.3701 116.127 23.4901 116.308 23.5521C116.488 23.6141 116.704 23.6451 116.954 23.6451C117.134 23.6451 117.301 23.6341 117.454 23.6141C117.606 23.5931 117.735 23.5731 117.839 23.5521L117.849 25.5931C117.62 25.6681 117.36 25.7301 117.068 25.7781C116.783 25.8261 116.461 25.8501 116.099 25.8501C115.481 25.8501 114.94 25.7471 114.474 25.5411C114.009 25.3281 113.648 24.9881 113.391 24.5211C113.134 24.0471 113.006 23.4211 113.006 22.6451V12.5181Z" fill="white"/>
<path d="M122.029 24.4072L125.05 14.4932H127.998L123.477 27.3342C123.372 27.6092 123.237 27.9082 123.07 28.2312C122.911 28.5542 122.695 28.8602 122.424 29.1482C122.154 29.4442 121.813 29.6842 121.404 29.8702C121.001 30.0552 120.511 30.1482 119.935 30.1482C119.685 30.1482 119.462 30.1312 119.268 30.0962C119.074 30.0622 118.869 30.0172 118.653 29.9622V27.9222C118.723 27.9292 118.803 27.9322 118.893 27.9322C118.99 27.9392 119.074 27.9422 119.143 27.9422C119.546 27.9422 119.879 27.8942 120.143 27.7982C120.407 27.7092 120.619 27.5612 120.779 27.3552C120.945 27.1562 121.084 26.8952 121.195 26.5722L122.029 24.4072ZM120.539 14.4932L123.091 22.7072L123.539 25.5822L121.643 25.9222L117.57 14.4932H120.539Z" fill="white"/>
</g>
<defs>
<linearGradient id="paint0_linear_18_27" x1="0.11679" y1="35.261" x2="34.9252" y2="3.92314" gradientUnits="userSpaceOnUse">
<stop stop-color="#D82E87"/>
<stop offset="1" stop-color="#FFAD00"/>
</linearGradient>
<clipPath id="clip0_18_27">
<rect width="128" height="36" fill="white"/>
</clipPath>
</defs>
</svg>
