<svg width="166" height="47" viewBox="0 0 166 47" fill="none" xmlns="http://www.w3.org/2000/svg">
<path d="M33.0278 10.4875C32.0613 10.4875 31.1639 10.987 30.6576 11.8081L25.2025 19.8801C25.0248 20.1462 25.097 20.5048 25.3638 20.6819C25.5803 20.8257 25.8665 20.8079 26.0634 20.6389L31.433 15.9971C31.5223 15.9171 31.6599 15.9253 31.7401 16.0141C31.7765 16.0549 31.7958 16.1075 31.7958 16.1617V30.6948C31.7958 30.8148 31.6985 30.911 31.578 30.911C31.5132 30.911 31.4523 30.8829 31.4114 30.8333L15.1802 11.4686C14.6515 10.8469 13.8753 10.4882 13.0582 10.4875H12.491C10.9556 10.4875 9.711 11.728 9.711 13.2583V33.7271C9.711 35.2572 10.9556 36.4977 12.491 36.4977C13.4575 36.4977 14.3549 35.9983 14.8612 35.1772L20.3163 27.1052C20.494 26.8392 20.4218 26.4804 20.1549 26.3034C19.9385 26.1597 19.6523 26.1773 19.4553 26.3464L14.0857 30.9883C13.9965 31.0683 13.859 31.06 13.7786 30.9711C13.7422 30.9304 13.7229 30.8777 13.7236 30.8237V16.2869C13.7236 16.1668 13.821 16.0705 13.9415 16.0705C14.0054 16.0705 14.0672 16.0986 14.108 16.1483L30.3371 35.5166C30.8658 36.1384 31.6419 36.497 32.459 36.4977H33.0264C34.5616 36.4984 35.807 35.2587 35.8085 33.7285V13.2583C35.8085 11.728 34.5638 10.4875 33.0286 10.4875H33.0278Z" fill="#151515"/>
<mask id="mask0_1_1152" style="mask-type:luminance" maskUnits="userSpaceOnUse" x="42" y="12" width="114" height="23">
<path d="M155.625 12.5001H42.7061V34.4852H155.625V12.5001Z" fill="white"/>
</mask>
<g mask="url(#mask0_1_1152)">
<path d="M42.9011 22.4638V12.6084H45.0138V22.4638H42.9011ZM48.3315 22.4638H46.261V12.6084H48.1765L52.3596 18.8173V12.6084H54.4441V22.4638H52.5145L48.3315 16.2549V22.4638ZM55.7004 22.4638V12.6084H62.2074V14.4247H57.8131V16.7336H61.4186V18.4653H57.8131V22.4638H55.7004ZM62.939 22.4638V12.6084H66.9531C69.1221 12.6084 70.5727 13.8896 70.5727 15.8889C70.5727 17.156 69.9108 18.1697 68.8826 18.6624L70.8262 22.4638H68.4883L66.8263 19.1552H65.0517V22.4638H62.939ZM66.7841 14.3683H65.0517V17.3954H66.7841C67.7841 17.3954 68.4179 16.804 68.4179 15.8889C68.4179 14.9596 67.7841 14.3683 66.7841 14.3683ZM72.8235 22.4638H70.6404L74.246 12.6084H76.7812L80.3588 22.4638H78.0911L77.3306 20.3097H73.5841L72.8235 22.4638ZM75.4433 14.8611L74.1474 18.6061H76.7531L75.4433 14.8611ZM80.0891 19.2257L82.1599 19.2538C82.2297 20.2112 82.9907 20.8729 84.2021 20.8729C85.1739 20.8729 85.8924 20.4505 85.8924 19.6762C85.8924 18.8455 85.0894 18.6766 83.441 18.3527C81.7794 18.043 80.3146 17.5079 80.3146 15.5087C80.3146 13.7629 81.7654 12.5239 83.9905 12.5239C86.3147 12.5239 87.7935 13.7347 87.8214 15.6213H85.7513C85.6529 14.7907 85.0189 14.2134 83.9905 14.2134C83.0891 14.2134 82.4412 14.5936 82.4412 15.3539C82.4412 16.1564 83.2162 16.3253 84.85 16.6351C86.5395 16.9448 88.0329 17.4516 88.019 19.4368C88.0043 21.2812 86.4837 22.5483 84.1734 22.5483C81.667 22.5483 80.103 21.2248 80.0891 19.2257ZM87.9012 14.4247V12.6084H95.718V14.4247H92.8589V22.4638H90.7463V14.4247H87.9012ZM96.4186 22.4638V12.6084H100.433C102.602 12.6084 104.052 13.8896 104.052 15.8889C104.052 17.156 103.391 18.1697 102.362 18.6624L104.306 22.4638H101.968L100.306 19.1552H98.5313V22.4638H96.4186ZM100.263 14.3683H98.5313V17.3954H100.263C101.264 17.3954 101.898 16.804 101.898 15.8889C101.898 14.9596 101.264 14.3683 100.263 14.3683ZM104.852 18.2119V12.6084H106.965V18.3246C106.965 19.8873 107.542 20.7321 108.895 20.7321C110.261 20.7321 110.838 19.8873 110.838 18.3246V12.6084H112.951V18.2119C112.951 21.0137 111.557 22.5483 108.895 22.5483C106.246 22.5483 104.852 21.0137 104.852 18.2119ZM118.452 22.5483C115.523 22.5483 113.748 20.5632 113.748 17.5361C113.748 14.5091 115.593 12.5239 118.578 12.5239C120.917 12.5239 122.564 13.9882 122.818 16.1282H120.677C120.424 15.0301 119.635 14.312 118.466 14.312C116.86 14.312 115.902 15.6355 115.902 17.5361C115.902 19.4227 116.846 20.7603 118.438 20.7603C119.635 20.7603 120.424 20.0422 120.677 18.944H122.804C122.564 21.0841 120.86 22.5483 118.452 22.5483ZM122.536 14.4247V12.6084H130.353V14.4247H127.494V22.4638H125.382V14.4247H122.536ZM130.983 18.2119V12.6084H133.096V18.3246C133.096 19.8873 133.673 20.7321 135.026 20.7321C136.391 20.7321 136.97 19.8873 136.97 18.3246V12.6084H139.082V18.2119C139.082 21.0137 137.687 22.5483 135.026 22.5483C132.378 22.5483 130.983 21.0137 130.983 18.2119ZM140.273 22.4638V12.6084H144.287C146.456 12.6084 147.906 13.8896 147.906 15.8889C147.906 17.156 147.245 18.1697 146.217 18.6624L148.161 22.4638H145.822L144.16 19.1552H142.386V22.4638H140.273ZM144.118 14.3683H142.386V17.3954H144.118C145.118 17.3954 145.752 16.804 145.752 15.8889C145.752 14.9596 145.118 14.3683 144.118 14.3683ZM148.832 22.4638V12.6084H155.452V14.4247H150.945V16.6351H154.606V18.3668H150.945V20.6476H155.607V22.4638H148.832ZM47.2392 34.4614C44.4786 34.4614 42.7181 32.4341 42.7181 29.4493C42.7181 26.4926 44.5208 24.4371 47.2955 24.4371C49.3659 24.4371 50.8589 25.5775 51.2954 27.5485H50.4927C50.056 25.9999 48.9011 25.1411 47.2532 25.1411C44.9716 25.1411 43.5068 26.9291 43.5068 29.4493C43.5068 31.9694 44.9434 33.7574 47.2251 33.7574C48.9011 33.7574 50.0419 32.9128 50.4645 31.3359H51.2673C50.8448 33.321 49.3518 34.4614 47.2392 34.4614ZM61.1623 29.4493C61.1623 32.3636 59.275 34.4614 56.5567 34.4614C53.8524 34.4614 51.951 32.3636 51.951 29.4493C51.951 26.5349 53.8524 24.4371 56.5567 24.4371C59.275 24.4371 61.1623 26.5349 61.1623 29.4493ZM52.7398 29.4493C52.7398 31.9694 54.3031 33.7574 56.5567 33.7574C58.8242 33.7574 60.3877 31.9694 60.3877 29.4493C60.3877 26.9291 58.8242 25.1411 56.5567 25.1411C54.3031 25.1411 52.7398 26.9291 52.7398 29.4493ZM62.4302 34.377V24.5216H63.4021L67.233 33.3492L71.0358 24.5216H71.9936V34.377H71.2471V25.8028L67.557 34.377H66.8668L63.1767 25.8028V34.377H62.4302ZM73.6025 34.377V24.5216H74.5743L78.405 33.3492L82.208 24.5216H83.1659V34.377H82.4195V25.8028L78.7289 34.377H78.0392L74.3489 25.8028V34.377H73.6025ZM84.7748 34.377V24.5216H85.5359V34.377H84.7748ZM86.4124 25.2255V24.5216H93.9331V25.2255H90.5525V34.377H89.7922V25.2255H86.4124ZM94.1602 25.2255V24.5216H101.681V25.2255H98.3003V34.377H97.54V25.2255H94.1602ZM102.557 34.377V24.5216H108.627V25.2255H103.318V28.9846H107.769V29.6886H103.318V33.673H108.81V34.377H102.557ZM109.823 34.377V24.5216H115.894V25.2255H110.584V28.9846H115.034V29.6886H110.584V33.673H116.077V34.377H109.823Z" fill="#151515"/>
</g>
</svg>
